<mxfile host="app.diagrams.net" agent="Mozilla/5.0 (Windows NT 10.0; Win64; x64) AppleWebKit/537.36 (KHTML, like Gecko) Chrome/133.0.0.0 Safari/537.36" version="26.0.16">
  <diagram name="หน้า-1" id="NL1uvQ_O5hLNR68H-VPU">
    <mxGraphModel dx="730" dy="889" grid="1" gridSize="10" guides="1" tooltips="1" connect="1" arrows="1" fold="1" page="1" pageScale="1" pageWidth="827" pageHeight="1169" math="0" shadow="0">
      <root>
        <mxCell id="0" />
        <mxCell id="1" parent="0" />
        <mxCell id="kULbL9CWnV3NFy8iWvYn-45" style="edgeStyle=orthogonalEdgeStyle;rounded=0;orthogonalLoop=1;jettySize=auto;html=1;entryX=0.5;entryY=0;entryDx=0;entryDy=0;" edge="1" parent="1" source="kULbL9CWnV3NFy8iWvYn-4" target="kULbL9CWnV3NFy8iWvYn-11">
          <mxGeometry relative="1" as="geometry" />
        </mxCell>
        <mxCell id="kULbL9CWnV3NFy8iWvYn-4" value="&lt;span style=&quot;text-align: left;&quot;&gt;AccessControl&amp;nbsp;&lt;/span&gt;" style="swimlane;fontStyle=0;childLayout=stackLayout;horizontal=1;startSize=26;fillColor=none;horizontalStack=0;resizeParent=1;resizeParentMax=0;resizeLast=0;collapsible=1;marginBottom=0;whiteSpace=wrap;html=1;" vertex="1" parent="1">
          <mxGeometry x="520" y="17" width="140" height="78" as="geometry" />
        </mxCell>
        <mxCell id="kULbL9CWnV3NFy8iWvYn-5" value="- accessStrategy" style="text;strokeColor=none;fillColor=none;align=left;verticalAlign=top;spacingLeft=4;spacingRight=4;overflow=hidden;rotatable=0;points=[[0,0.5],[1,0.5]];portConstraint=eastwest;whiteSpace=wrap;html=1;" vertex="1" parent="kULbL9CWnV3NFy8iWvYn-4">
          <mxGeometry y="26" width="140" height="26" as="geometry" />
        </mxCell>
        <mxCell id="kULbL9CWnV3NFy8iWvYn-6" value="+ requestAccess()&amp;nbsp;" style="text;strokeColor=none;fillColor=none;align=left;verticalAlign=top;spacingLeft=4;spacingRight=4;overflow=hidden;rotatable=0;points=[[0,0.5],[1,0.5]];portConstraint=eastwest;whiteSpace=wrap;html=1;" vertex="1" parent="kULbL9CWnV3NFy8iWvYn-4">
          <mxGeometry y="52" width="140" height="26" as="geometry" />
        </mxCell>
        <mxCell id="kULbL9CWnV3NFy8iWvYn-60" style="edgeStyle=orthogonalEdgeStyle;rounded=0;orthogonalLoop=1;jettySize=auto;html=1;exitX=0.59;exitY=1.019;exitDx=0;exitDy=0;exitPerimeter=0;entryX=1;entryY=0.422;entryDx=0;entryDy=0;entryPerimeter=0;" edge="1" parent="1" source="kULbL9CWnV3NFy8iWvYn-10">
          <mxGeometry relative="1" as="geometry">
            <mxPoint x="783.45" y="48.00399999999995" as="sourcePoint" />
            <mxPoint x="380" y="126.08799999999997" as="targetPoint" />
            <Array as="points">
              <mxPoint x="784" y="83" />
              <mxPoint x="784" y="126" />
            </Array>
          </mxGeometry>
        </mxCell>
        <mxCell id="kULbL9CWnV3NFy8iWvYn-8" value="&lt;span style=&quot;text-align: left;&quot;&gt;&amp;nbsp;&amp;nbsp;AccessStrategy&lt;/span&gt;" style="swimlane;fontStyle=0;childLayout=stackLayout;horizontal=1;startSize=26;fillColor=none;horizontalStack=0;resizeParent=1;resizeParentMax=0;resizeLast=0;collapsible=1;marginBottom=0;whiteSpace=wrap;html=1;" vertex="1" parent="1">
          <mxGeometry x="700" y="30" width="140" height="52" as="geometry" />
        </mxCell>
        <mxCell id="kULbL9CWnV3NFy8iWvYn-10" value="+ checkAccess(Card)" style="text;strokeColor=none;fillColor=none;align=left;verticalAlign=top;spacingLeft=4;spacingRight=4;overflow=hidden;rotatable=0;points=[[0,0.5],[1,0.5]];portConstraint=eastwest;whiteSpace=wrap;html=1;" vertex="1" parent="kULbL9CWnV3NFy8iWvYn-8">
          <mxGeometry y="26" width="140" height="26" as="geometry" />
        </mxCell>
        <mxCell id="kULbL9CWnV3NFy8iWvYn-63" style="edgeStyle=orthogonalEdgeStyle;rounded=0;orthogonalLoop=1;jettySize=auto;html=1;entryX=0.351;entryY=-0.032;entryDx=0;entryDy=0;entryPerimeter=0;" edge="1" parent="1" source="kULbL9CWnV3NFy8iWvYn-11" target="kULbL9CWnV3NFy8iWvYn-28">
          <mxGeometry relative="1" as="geometry">
            <mxPoint x="150" y="460.0000000000002" as="targetPoint" />
            <Array as="points">
              <mxPoint x="146" y="180" />
            </Array>
          </mxGeometry>
        </mxCell>
        <mxCell id="kULbL9CWnV3NFy8iWvYn-11" value="&lt;span style=&quot;text-align: left;&quot;&gt;&amp;nbsp; Card&amp;nbsp;&amp;nbsp;&lt;/span&gt;" style="swimlane;fontStyle=0;childLayout=stackLayout;horizontal=1;startSize=26;fillColor=none;horizontalStack=0;resizeParent=1;resizeParentMax=0;resizeLast=0;collapsible=1;marginBottom=0;whiteSpace=wrap;html=1;" vertex="1" parent="1">
          <mxGeometry x="240" y="48" width="140" height="230" as="geometry" />
        </mxCell>
        <mxCell id="kULbL9CWnV3NFy8iWvYn-12" value="&lt;div&gt;- cardIdFacades&amp;nbsp; &amp;nbsp; &amp;nbsp; &amp;nbsp; &amp;nbsp; &amp;nbsp; &lt;span style=&quot;background-color: transparent; color: light-dark(rgb(0, 0, 0), rgb(255, 255, 255));&quot;&gt;- ownerName&amp;nbsp; &amp;nbsp; &amp;nbsp; &amp;nbsp; &amp;nbsp; &amp;nbsp; &amp;nbsp; &amp;nbsp;&lt;/span&gt;&lt;/div&gt;&lt;div&gt;- ownerAge&amp;nbsp; &amp;nbsp;&amp;nbsp;&lt;/div&gt;&lt;div&gt;- isActive&amp;nbsp;&amp;nbsp;&lt;/div&gt;&lt;div&gt;- accessLevels&amp;nbsp; &amp;nbsp;&amp;nbsp;&lt;/div&gt;&lt;div&gt;- encryptedData&amp;nbsp; &amp;nbsp; &amp;nbsp;&lt;/div&gt;&lt;div&gt;- password&amp;nbsp; &amp;nbsp;&amp;nbsp;&lt;/div&gt;&lt;div&gt;-------------------------&amp;nbsp; &amp;nbsp;&amp;nbsp;&lt;/div&gt;&lt;div&gt;+ verifyPassword()&amp;nbsp; &amp;nbsp; &amp;nbsp;&lt;/div&gt;&lt;div&gt;+ encrypt()&amp;nbsp; &amp;nbsp;&amp;nbsp;&lt;/div&gt;&lt;div&gt;+ decrypt()&amp;nbsp; &amp;nbsp;&amp;nbsp;&lt;/div&gt;&lt;div&gt;+ deactivateCard()&amp;nbsp; &amp;nbsp; &amp;nbsp;&amp;nbsp;&lt;/div&gt;&lt;div&gt;+ isWithinAccessTime()&lt;/div&gt;" style="text;strokeColor=none;fillColor=none;align=left;verticalAlign=top;spacingLeft=4;spacingRight=4;overflow=hidden;rotatable=0;points=[[0,0.5],[1,0.5]];portConstraint=eastwest;whiteSpace=wrap;html=1;" vertex="1" parent="kULbL9CWnV3NFy8iWvYn-11">
          <mxGeometry y="26" width="140" height="204" as="geometry" />
        </mxCell>
        <mxCell id="kULbL9CWnV3NFy8iWvYn-14" value="&lt;span style=&quot;text-align: left;&quot;&gt;&amp;nbsp;FloorAccessStrategy&lt;/span&gt;" style="swimlane;fontStyle=0;childLayout=stackLayout;horizontal=1;startSize=26;fillColor=none;horizontalStack=0;resizeParent=1;resizeParentMax=0;resizeLast=0;collapsible=1;marginBottom=0;whiteSpace=wrap;html=1;" vertex="1" parent="1">
          <mxGeometry x="60" y="17" width="140" height="52" as="geometry" />
        </mxCell>
        <mxCell id="kULbL9CWnV3NFy8iWvYn-16" value="+ checkAccess(Card)" style="text;strokeColor=none;fillColor=none;align=left;verticalAlign=top;spacingLeft=4;spacingRight=4;overflow=hidden;rotatable=0;points=[[0,0.5],[1,0.5]];portConstraint=eastwest;whiteSpace=wrap;html=1;" vertex="1" parent="kULbL9CWnV3NFy8iWvYn-14">
          <mxGeometry y="26" width="140" height="26" as="geometry" />
        </mxCell>
        <mxCell id="kULbL9CWnV3NFy8iWvYn-17" value="&lt;span style=&quot;text-align: left;&quot;&gt;EmployeeCard&lt;/span&gt;" style="swimlane;fontStyle=0;childLayout=stackLayout;horizontal=1;startSize=26;fillColor=none;horizontalStack=0;resizeParent=1;resizeParentMax=0;resizeLast=0;collapsible=1;marginBottom=0;whiteSpace=wrap;html=1;" vertex="1" parent="1">
          <mxGeometry x="670" y="212" width="140" height="52" as="geometry" />
        </mxCell>
        <mxCell id="kULbL9CWnV3NFy8iWvYn-18" value="+ analyzeUsage()" style="text;strokeColor=none;fillColor=none;align=left;verticalAlign=top;spacingLeft=4;spacingRight=4;overflow=hidden;rotatable=0;points=[[0,0.5],[1,0.5]];portConstraint=eastwest;whiteSpace=wrap;html=1;" vertex="1" parent="kULbL9CWnV3NFy8iWvYn-17">
          <mxGeometry y="26" width="140" height="26" as="geometry" />
        </mxCell>
        <mxCell id="kULbL9CWnV3NFy8iWvYn-19" value="&lt;div style=&quot;text-align: left;&quot;&gt;&lt;span style=&quot;background-color: transparent;&quot;&gt;VisitorCard&amp;nbsp;&lt;/span&gt;&lt;/div&gt;" style="swimlane;fontStyle=0;childLayout=stackLayout;horizontal=1;startSize=26;fillColor=none;horizontalStack=0;resizeParent=1;resizeParentMax=0;resizeLast=0;collapsible=1;marginBottom=0;whiteSpace=wrap;html=1;" vertex="1" parent="1">
          <mxGeometry x="670" y="160" width="140" height="52" as="geometry" />
        </mxCell>
        <mxCell id="kULbL9CWnV3NFy8iWvYn-20" value="+ analyzeUsage()" style="text;strokeColor=none;fillColor=none;align=left;verticalAlign=top;spacingLeft=4;spacingRight=4;overflow=hidden;rotatable=0;points=[[0,0.5],[1,0.5]];portConstraint=eastwest;whiteSpace=wrap;html=1;" vertex="1" parent="kULbL9CWnV3NFy8iWvYn-19">
          <mxGeometry y="26" width="140" height="26" as="geometry" />
        </mxCell>
        <mxCell id="kULbL9CWnV3NFy8iWvYn-24" value="&lt;span style=&quot;font-weight: 400; text-align: left;&quot;&gt;Admin&amp;nbsp;&lt;/span&gt;" style="swimlane;fontStyle=1;align=center;verticalAlign=top;childLayout=stackLayout;horizontal=1;startSize=26;horizontalStack=0;resizeParent=1;resizeParentMax=0;resizeLast=0;collapsible=1;marginBottom=0;whiteSpace=wrap;html=1;" vertex="1" parent="1">
          <mxGeometry x="280" y="342" width="150" height="150" as="geometry" />
        </mxCell>
        <mxCell id="kULbL9CWnV3NFy8iWvYn-25" value="&lt;div&gt;- accessLevel&lt;/div&gt;&lt;div&gt;- cards&amp;nbsp; &amp;nbsp;&amp;nbsp;&lt;/div&gt;" style="text;strokeColor=none;fillColor=none;align=left;verticalAlign=top;spacingLeft=4;spacingRight=4;overflow=hidden;rotatable=0;points=[[0,0.5],[1,0.5]];portConstraint=eastwest;whiteSpace=wrap;html=1;" vertex="1" parent="kULbL9CWnV3NFy8iWvYn-24">
          <mxGeometry y="26" width="150" height="44" as="geometry" />
        </mxCell>
        <mxCell id="kULbL9CWnV3NFy8iWvYn-26" value="" style="line;strokeWidth=1;fillColor=none;align=left;verticalAlign=middle;spacingTop=-1;spacingLeft=3;spacingRight=3;rotatable=0;labelPosition=right;points=[];portConstraint=eastwest;strokeColor=inherit;" vertex="1" parent="kULbL9CWnV3NFy8iWvYn-24">
          <mxGeometry y="70" width="150" height="8" as="geometry" />
        </mxCell>
        <mxCell id="kULbL9CWnV3NFy8iWvYn-27" value="&lt;div&gt;+ addCard()&amp;nbsp; &amp;nbsp; &amp;nbsp; &amp;nbsp; &amp;nbsp; &amp;nbsp;&lt;/div&gt;&lt;div&gt;&amp;nbsp;+ revokeCard()&amp;nbsp; &amp;nbsp; &amp;nbsp; &amp;nbsp;&amp;nbsp;&lt;/div&gt;&lt;div&gt;&amp;nbsp;+ modifyCard()&amp;nbsp; &amp;nbsp; &amp;nbsp; &amp;nbsp;&amp;nbsp;&lt;/div&gt;&lt;div&gt;&amp;nbsp;+ findCard()&lt;/div&gt;" style="text;strokeColor=none;fillColor=none;align=left;verticalAlign=top;spacingLeft=4;spacingRight=4;overflow=hidden;rotatable=0;points=[[0,0.5],[1,0.5]];portConstraint=eastwest;whiteSpace=wrap;html=1;" vertex="1" parent="kULbL9CWnV3NFy8iWvYn-24">
          <mxGeometry y="78" width="150" height="72" as="geometry" />
        </mxCell>
        <mxCell id="kULbL9CWnV3NFy8iWvYn-50" style="edgeStyle=orthogonalEdgeStyle;rounded=0;orthogonalLoop=1;jettySize=auto;html=1;entryX=0.5;entryY=0;entryDx=0;entryDy=0;" edge="1" parent="1" source="kULbL9CWnV3NFy8iWvYn-28" target="kULbL9CWnV3NFy8iWvYn-32">
          <mxGeometry relative="1" as="geometry" />
        </mxCell>
        <mxCell id="kULbL9CWnV3NFy8iWvYn-54" style="edgeStyle=orthogonalEdgeStyle;rounded=0;orthogonalLoop=1;jettySize=auto;html=1;entryX=0;entryY=0.25;entryDx=0;entryDy=0;" edge="1" parent="1" source="kULbL9CWnV3NFy8iWvYn-28" target="kULbL9CWnV3NFy8iWvYn-38">
          <mxGeometry relative="1" as="geometry" />
        </mxCell>
        <mxCell id="kULbL9CWnV3NFy8iWvYn-28" value="Logger" style="swimlane;fontStyle=0;align=center;verticalAlign=top;childLayout=stackLayout;horizontal=1;startSize=26;horizontalStack=0;resizeParent=1;resizeParentMax=0;resizeLast=0;collapsible=1;marginBottom=0;whiteSpace=wrap;html=1;" vertex="1" parent="1">
          <mxGeometry x="90" y="480" width="160" height="52" as="geometry" />
        </mxCell>
        <mxCell id="kULbL9CWnV3NFy8iWvYn-29" value="+ log()" style="text;strokeColor=none;fillColor=none;align=left;verticalAlign=top;spacingLeft=4;spacingRight=4;overflow=hidden;rotatable=0;points=[[0,0.5],[1,0.5]];portConstraint=eastwest;whiteSpace=wrap;html=1;" vertex="1" parent="kULbL9CWnV3NFy8iWvYn-28">
          <mxGeometry y="26" width="160" height="26" as="geometry" />
        </mxCell>
        <mxCell id="kULbL9CWnV3NFy8iWvYn-32" value="TimeLogDecorator&amp;nbsp;" style="swimlane;fontStyle=0;align=center;verticalAlign=top;childLayout=stackLayout;horizontal=1;startSize=26;horizontalStack=0;resizeParent=1;resizeParentMax=0;resizeLast=0;collapsible=1;marginBottom=0;whiteSpace=wrap;html=1;" vertex="1" parent="1">
          <mxGeometry x="60" y="590" width="160" height="52" as="geometry" />
        </mxCell>
        <mxCell id="kULbL9CWnV3NFy8iWvYn-33" value="+ log()" style="text;strokeColor=none;fillColor=none;align=left;verticalAlign=top;spacingLeft=4;spacingRight=4;overflow=hidden;rotatable=0;points=[[0,0.5],[1,0.5]];portConstraint=eastwest;whiteSpace=wrap;html=1;" vertex="1" parent="kULbL9CWnV3NFy8iWvYn-32">
          <mxGeometry y="26" width="160" height="26" as="geometry" />
        </mxCell>
        <mxCell id="kULbL9CWnV3NFy8iWvYn-55" style="edgeStyle=orthogonalEdgeStyle;rounded=0;orthogonalLoop=1;jettySize=auto;html=1;entryX=1;entryY=0.5;entryDx=0;entryDy=0;" edge="1" parent="1" source="kULbL9CWnV3NFy8iWvYn-38" target="kULbL9CWnV3NFy8iWvYn-29">
          <mxGeometry relative="1" as="geometry" />
        </mxCell>
        <mxCell id="kULbL9CWnV3NFy8iWvYn-38" value="&lt;span style=&quot;font-weight: 400;&quot;&gt;AuditService&amp;nbsp;&lt;/span&gt;" style="swimlane;fontStyle=1;align=center;verticalAlign=top;childLayout=stackLayout;horizontal=1;startSize=26;horizontalStack=0;resizeParent=1;resizeParentMax=0;resizeLast=0;collapsible=1;marginBottom=0;whiteSpace=wrap;html=1;" vertex="1" parent="1">
          <mxGeometry x="440" y="480" width="160" height="86" as="geometry" />
        </mxCell>
        <mxCell id="kULbL9CWnV3NFy8iWvYn-39" value="+ log()" style="text;strokeColor=none;fillColor=none;align=left;verticalAlign=top;spacingLeft=4;spacingRight=4;overflow=hidden;rotatable=0;points=[[0,0.5],[1,0.5]];portConstraint=eastwest;whiteSpace=wrap;html=1;" vertex="1" parent="kULbL9CWnV3NFy8iWvYn-38">
          <mxGeometry y="26" width="160" height="26" as="geometry" />
        </mxCell>
        <mxCell id="kULbL9CWnV3NFy8iWvYn-40" value="" style="line;strokeWidth=1;fillColor=none;align=left;verticalAlign=middle;spacingTop=-1;spacingLeft=3;spacingRight=3;rotatable=0;labelPosition=right;points=[];portConstraint=eastwest;strokeColor=inherit;" vertex="1" parent="kULbL9CWnV3NFy8iWvYn-38">
          <mxGeometry y="52" width="160" height="8" as="geometry" />
        </mxCell>
        <mxCell id="kULbL9CWnV3NFy8iWvYn-41" value="+ getLogs()" style="text;strokeColor=none;fillColor=none;align=left;verticalAlign=top;spacingLeft=4;spacingRight=4;overflow=hidden;rotatable=0;points=[[0,0.5],[1,0.5]];portConstraint=eastwest;whiteSpace=wrap;html=1;" vertex="1" parent="kULbL9CWnV3NFy8iWvYn-38">
          <mxGeometry y="60" width="160" height="26" as="geometry" />
        </mxCell>
        <mxCell id="kULbL9CWnV3NFy8iWvYn-42" value="UserLogDecorator" style="swimlane;fontStyle=0;align=center;verticalAlign=top;childLayout=stackLayout;horizontal=1;startSize=26;horizontalStack=0;resizeParent=1;resizeParentMax=0;resizeLast=0;collapsible=1;marginBottom=0;whiteSpace=wrap;html=1;" vertex="1" parent="1">
          <mxGeometry x="220" y="590" width="160" height="52" as="geometry" />
        </mxCell>
        <mxCell id="kULbL9CWnV3NFy8iWvYn-43" value="+ log()" style="text;strokeColor=none;fillColor=none;align=left;verticalAlign=top;spacingLeft=4;spacingRight=4;overflow=hidden;rotatable=0;points=[[0,0.5],[1,0.5]];portConstraint=eastwest;whiteSpace=wrap;html=1;" vertex="1" parent="kULbL9CWnV3NFy8iWvYn-42">
          <mxGeometry y="26" width="160" height="26" as="geometry" />
        </mxCell>
        <mxCell id="kULbL9CWnV3NFy8iWvYn-44" style="edgeStyle=orthogonalEdgeStyle;rounded=0;orthogonalLoop=1;jettySize=auto;html=1;" edge="1" parent="1" source="kULbL9CWnV3NFy8iWvYn-5" target="kULbL9CWnV3NFy8iWvYn-10">
          <mxGeometry relative="1" as="geometry" />
        </mxCell>
        <mxCell id="kULbL9CWnV3NFy8iWvYn-47" style="edgeStyle=orthogonalEdgeStyle;rounded=0;orthogonalLoop=1;jettySize=auto;html=1;entryX=0.501;entryY=1.002;entryDx=0;entryDy=0;entryPerimeter=0;" edge="1" parent="1" source="kULbL9CWnV3NFy8iWvYn-14" target="kULbL9CWnV3NFy8iWvYn-12">
          <mxGeometry relative="1" as="geometry" />
        </mxCell>
        <mxCell id="kULbL9CWnV3NFy8iWvYn-48" style="edgeStyle=orthogonalEdgeStyle;rounded=0;orthogonalLoop=1;jettySize=auto;html=1;entryX=0.473;entryY=0.005;entryDx=0;entryDy=0;entryPerimeter=0;" edge="1" parent="1" source="kULbL9CWnV3NFy8iWvYn-17" target="kULbL9CWnV3NFy8iWvYn-24">
          <mxGeometry relative="1" as="geometry" />
        </mxCell>
        <mxCell id="kULbL9CWnV3NFy8iWvYn-49" style="edgeStyle=orthogonalEdgeStyle;rounded=0;orthogonalLoop=1;jettySize=auto;html=1;entryX=0.47;entryY=0.012;entryDx=0;entryDy=0;entryPerimeter=0;" edge="1" parent="1" source="kULbL9CWnV3NFy8iWvYn-24" target="kULbL9CWnV3NFy8iWvYn-28">
          <mxGeometry relative="1" as="geometry" />
        </mxCell>
        <mxCell id="kULbL9CWnV3NFy8iWvYn-58" style="edgeStyle=orthogonalEdgeStyle;rounded=0;orthogonalLoop=1;jettySize=auto;html=1;entryX=0;entryY=0.25;entryDx=0;entryDy=0;" edge="1" parent="1" source="kULbL9CWnV3NFy8iWvYn-25" target="kULbL9CWnV3NFy8iWvYn-19">
          <mxGeometry relative="1" as="geometry" />
        </mxCell>
        <mxCell id="kULbL9CWnV3NFy8iWvYn-62" style="edgeStyle=orthogonalEdgeStyle;rounded=0;orthogonalLoop=1;jettySize=auto;html=1;entryX=0.925;entryY=0.032;entryDx=0;entryDy=0;entryPerimeter=0;" edge="1" parent="1" source="kULbL9CWnV3NFy8iWvYn-12" target="kULbL9CWnV3NFy8iWvYn-24">
          <mxGeometry relative="1" as="geometry" />
        </mxCell>
      </root>
    </mxGraphModel>
  </diagram>
</mxfile>
